<?xml version="1.0" standalone="no"?>
<!DOCTYPE svg PUBLIC "-//W3C//DTD SVG 20010904//EN"
 "http://www.w3.org/TR/2001/REC-SVG-20010904/DTD/svg10.dtd">
<svg version="1.0" xmlns="http://www.w3.org/2000/svg"
 width="45.000000pt" height="45.000000pt" viewBox="0 0 45.000000 45.000000"
 preserveAspectRatio="xMidYMid meet">
<metadata>
Created by potrace 1.16, written by Peter Selinger 2001-2019
</metadata>
<g transform="translate(0.000000,45.000000) scale(0.100000,-0.100000)"
fill="#000000" stroke="none">
<path d="M0 225 l0 -225 225 0 225 0 0 225 0 225 -225 0 -225 0 0 -225z m194
172 c13 -10 17 -24 14 -57 l-3 -45 -70 0 c-66 0 -70 1 -79 26 -12 34 -1 76 22
82 36 10 99 6 116 -6z m180 0 c14 -10 16 -26 14 -97 l-3 -85 -69 -3 c-49 -2
-72 1 -77 10 -16 24 -10 155 7 172 19 20 103 22 128 3z m-175 -141 c8 -9 11
-45 9 -98 l-3 -83 -65 -3 c-80 -4 -90 7 -90 96 0 91 8 102 79 102 38 0 63 -5
70 -14z m175 -79 c13 -10 17 -24 14 -57 l-3 -45 -63 -3 c-38 -2 -69 2 -78 9
-19 15 -18 74 2 93 19 20 103 21 128 3z"/>
</g>
</svg>
